<mxfile host="app.diagrams.net" agent="Mozilla/5.0 (Windows NT 10.0; Win64; x64) AppleWebKit/537.36 (KHTML, like Gecko) Chrome/136.0.0.0 Safari/537.36 Edg/136.0.0.0" version="27.0.9">
  <diagram name="Страница — 1" id="kR2mY9mSMy4VQi8BZz8V">
    <mxGraphModel dx="1933" dy="1083" grid="1" gridSize="10" guides="1" tooltips="1" connect="1" arrows="1" fold="1" page="1" pageScale="1" pageWidth="827" pageHeight="1169" math="0" shadow="0">
      <root>
        <mxCell id="0" />
        <mxCell id="1" parent="0" />
        <mxCell id="HbWgX3vfPOHSz5a9uJlV-3" value="&lt;span&gt;Преподаватель&lt;/span&gt;" style="ellipse;whiteSpace=wrap;html=1;aspect=fixed;fontFamily=Times New Roman;fontSize=14;fillColor=#e1d5e7;strokeColor=#9673a6;" vertex="1" parent="1">
          <mxGeometry x="840" y="195" width="110" height="110" as="geometry" />
        </mxCell>
        <mxCell id="HbWgX3vfPOHSz5a9uJlV-4" value="&lt;span&gt;Заведующий кафедры&lt;/span&gt;" style="ellipse;whiteSpace=wrap;html=1;aspect=fixed;fontFamily=Times New Roman;fontSize=14;fillColor=#e1d5e7;strokeColor=#9673a6;" vertex="1" parent="1">
          <mxGeometry x="1160" y="195" width="110" height="110" as="geometry" />
        </mxCell>
        <mxCell id="HbWgX3vfPOHSz5a9uJlV-5" value="&lt;span&gt;Ректор&lt;/span&gt;" style="ellipse;whiteSpace=wrap;html=1;aspect=fixed;fontFamily=Times New Roman;fontSize=14;fillColor=#e1d5e7;strokeColor=#9673a6;" vertex="1" parent="1">
          <mxGeometry x="520" y="195" width="110" height="110" as="geometry" />
        </mxCell>
        <mxCell id="HbWgX3vfPOHSz5a9uJlV-6" value="&lt;span&gt;Студент&lt;/span&gt;" style="ellipse;whiteSpace=wrap;html=1;aspect=fixed;fontFamily=Times New Roman;fontSize=14;fillColor=#e1d5e7;strokeColor=#9673a6;" vertex="1" parent="1">
          <mxGeometry x="190" y="195" width="110" height="110" as="geometry" />
        </mxCell>
        <mxCell id="HbWgX3vfPOHSz5a9uJlV-7" value="&lt;span&gt;Декан&lt;/span&gt;" style="ellipse;whiteSpace=wrap;html=1;aspect=fixed;fontFamily=Times New Roman;fontSize=14;fillColor=#e1d5e7;strokeColor=#9673a6;" vertex="1" parent="1">
          <mxGeometry x="1480" y="195" width="110" height="110" as="geometry" />
        </mxCell>
        <mxCell id="HbWgX3vfPOHSz5a9uJlV-9" value="" style="rounded=0;whiteSpace=wrap;html=1;fontFamily=Times New Roman;fontSize=14;fillColor=#ffe6cc;strokeColor=#d79b00;" vertex="1" parent="1">
          <mxGeometry x="225" y="360" width="40" height="240" as="geometry" />
        </mxCell>
        <mxCell id="HbWgX3vfPOHSz5a9uJlV-10" value="" style="rounded=0;whiteSpace=wrap;html=1;fontFamily=Times New Roman;fontSize=14;fillColor=#ffe6cc;strokeColor=#d79b00;" vertex="1" parent="1">
          <mxGeometry x="1520" y="370" width="35" height="100" as="geometry" />
        </mxCell>
        <mxCell id="HbWgX3vfPOHSz5a9uJlV-11" style="edgeStyle=orthogonalEdgeStyle;rounded=0;orthogonalLoop=1;jettySize=auto;html=1;entryX=-0.01;entryY=0.124;entryDx=0;entryDy=0;entryPerimeter=0;fontFamily=Times New Roman;fontSize=14;" edge="1" parent="1" source="HbWgX3vfPOHSz5a9uJlV-9" target="HbWgX3vfPOHSz5a9uJlV-10">
          <mxGeometry relative="1" as="geometry">
            <Array as="points">
              <mxPoint x="420" y="382" />
              <mxPoint x="420" y="382" />
            </Array>
          </mxGeometry>
        </mxCell>
        <mxCell id="HbWgX3vfPOHSz5a9uJlV-12" value="Декан выполняет идентификацию академических задолженностей по студентам" style="text;html=1;align=center;verticalAlign=middle;whiteSpace=wrap;rounded=0;fontFamily=Times New Roman;fontSize=14;" vertex="1" parent="1">
          <mxGeometry x="660" y="350" width="510" height="30" as="geometry" />
        </mxCell>
        <mxCell id="HbWgX3vfPOHSz5a9uJlV-14" value="" style="rounded=0;whiteSpace=wrap;html=1;fontFamily=Times New Roman;fontSize=14;fillColor=#ffe6cc;strokeColor=#d79b00;" vertex="1" parent="1">
          <mxGeometry x="1201" y="500" width="40" height="100" as="geometry" />
        </mxCell>
        <mxCell id="HbWgX3vfPOHSz5a9uJlV-16" value="Заведующий кафедры заполняет данные по студентам для направления на пересдачу" style="text;html=1;align=center;verticalAlign=middle;whiteSpace=wrap;rounded=0;fontFamily=Times New Roman;fontSize=14;" vertex="1" parent="1">
          <mxGeometry x="1230" y="510" width="310" height="30" as="geometry" />
        </mxCell>
        <mxCell id="HbWgX3vfPOHSz5a9uJlV-18" style="edgeStyle=orthogonalEdgeStyle;rounded=0;orthogonalLoop=1;jettySize=auto;html=1;entryX=1;entryY=0.5;entryDx=0;entryDy=0;" edge="1" parent="1" source="HbWgX3vfPOHSz5a9uJlV-17" target="HbWgX3vfPOHSz5a9uJlV-14">
          <mxGeometry relative="1" as="geometry" />
        </mxCell>
        <mxCell id="HbWgX3vfPOHSz5a9uJlV-17" value="" style="rounded=0;whiteSpace=wrap;html=1;fontFamily=Times New Roman;fontSize=14;fillColor=#ffe6cc;strokeColor=#d79b00;" vertex="1" parent="1">
          <mxGeometry x="1520" y="500" width="35" height="100" as="geometry" />
        </mxCell>
        <mxCell id="HbWgX3vfPOHSz5a9uJlV-19" value="" style="rounded=0;whiteSpace=wrap;html=1;fontFamily=Times New Roman;fontSize=14;fillColor=#ffe6cc;strokeColor=#d79b00;" vertex="1" parent="1">
          <mxGeometry x="555" y="630" width="40" height="100" as="geometry" />
        </mxCell>
        <mxCell id="HbWgX3vfPOHSz5a9uJlV-21" style="edgeStyle=orthogonalEdgeStyle;rounded=0;orthogonalLoop=1;jettySize=auto;html=1;entryX=1;entryY=0.5;entryDx=0;entryDy=0;" edge="1" parent="1" source="HbWgX3vfPOHSz5a9uJlV-20" target="HbWgX3vfPOHSz5a9uJlV-19">
          <mxGeometry relative="1" as="geometry" />
        </mxCell>
        <mxCell id="HbWgX3vfPOHSz5a9uJlV-20" value="" style="rounded=0;whiteSpace=wrap;html=1;fontFamily=Times New Roman;fontSize=14;fillColor=#ffe6cc;strokeColor=#d79b00;" vertex="1" parent="1">
          <mxGeometry x="1201" y="630" width="40" height="100" as="geometry" />
        </mxCell>
        <mxCell id="HbWgX3vfPOHSz5a9uJlV-22" value="Ректор издает приказ о назначении комиссии по ликвидации задолженностей" style="text;html=1;align=center;verticalAlign=middle;whiteSpace=wrap;rounded=0;fontFamily=Times New Roman;fontSize=14;" vertex="1" parent="1">
          <mxGeometry x="760" y="640" width="310" height="30" as="geometry" />
        </mxCell>
        <mxCell id="HbWgX3vfPOHSz5a9uJlV-25" value="" style="rounded=0;whiteSpace=wrap;html=1;fontFamily=Times New Roman;fontSize=14;fillColor=#ffe6cc;strokeColor=#d79b00;" vertex="1" parent="1">
          <mxGeometry x="225" y="630" width="40" height="100" as="geometry" />
        </mxCell>
        <mxCell id="HbWgX3vfPOHSz5a9uJlV-26" style="edgeStyle=orthogonalEdgeStyle;rounded=0;orthogonalLoop=1;jettySize=auto;html=1;" edge="1" parent="1" source="HbWgX3vfPOHSz5a9uJlV-19" target="HbWgX3vfPOHSz5a9uJlV-25">
          <mxGeometry relative="1" as="geometry" />
        </mxCell>
        <mxCell id="HbWgX3vfPOHSz5a9uJlV-27" value="Ликвидация академических задолженностей" style="text;html=1;align=center;verticalAlign=middle;whiteSpace=wrap;rounded=0;fontFamily=Times New Roman;fontSize=14;" vertex="1" parent="1">
          <mxGeometry x="275" y="640" width="245" height="30" as="geometry" />
        </mxCell>
        <mxCell id="HbWgX3vfPOHSz5a9uJlV-40" style="edgeStyle=orthogonalEdgeStyle;rounded=0;orthogonalLoop=1;jettySize=auto;html=1;entryX=0;entryY=0.5;entryDx=0;entryDy=0;" edge="1" parent="1" source="HbWgX3vfPOHSz5a9uJlV-28" target="HbWgX3vfPOHSz5a9uJlV-39">
          <mxGeometry relative="1" as="geometry">
            <Array as="points">
              <mxPoint x="430" y="810" />
              <mxPoint x="430" y="810" />
            </Array>
          </mxGeometry>
        </mxCell>
        <mxCell id="HbWgX3vfPOHSz5a9uJlV-28" value="" style="rounded=0;whiteSpace=wrap;html=1;fontFamily=Times New Roman;fontSize=14;fillColor=#ffe6cc;strokeColor=#d79b00;" vertex="1" parent="1">
          <mxGeometry x="225" y="760" width="40" height="370" as="geometry" />
        </mxCell>
        <mxCell id="HbWgX3vfPOHSz5a9uJlV-31" value="Фиксируем результаты пересдачи в ведомость учета академических задолженностей" style="text;html=1;align=center;verticalAlign=middle;whiteSpace=wrap;rounded=0;fontFamily=Times New Roman;fontSize=14;" vertex="1" parent="1">
          <mxGeometry x="320" y="760" width="530" height="30" as="geometry" />
        </mxCell>
        <mxCell id="HbWgX3vfPOHSz5a9uJlV-39" value="" style="rounded=0;whiteSpace=wrap;html=1;fontFamily=Times New Roman;fontSize=14;fillColor=#ffe6cc;strokeColor=#d79b00;" vertex="1" parent="1">
          <mxGeometry x="875" y="760" width="40" height="100" as="geometry" />
        </mxCell>
        <mxCell id="HbWgX3vfPOHSz5a9uJlV-55" style="edgeStyle=orthogonalEdgeStyle;rounded=0;orthogonalLoop=1;jettySize=auto;html=1;entryX=1.003;entryY=0.826;entryDx=0;entryDy=0;entryPerimeter=0;" edge="1" parent="1" source="HbWgX3vfPOHSz5a9uJlV-41" target="HbWgX3vfPOHSz5a9uJlV-41">
          <mxGeometry relative="1" as="geometry">
            <mxPoint x="950" y="950" as="targetPoint" />
            <Array as="points">
              <mxPoint x="970" y="920" />
              <mxPoint x="970" y="983" />
            </Array>
          </mxGeometry>
        </mxCell>
        <mxCell id="HbWgX3vfPOHSz5a9uJlV-41" value="" style="rounded=0;whiteSpace=wrap;html=1;fontFamily=Times New Roman;fontSize=14;fillColor=#ffe6cc;strokeColor=#d79b00;" vertex="1" parent="1">
          <mxGeometry x="875" y="900" width="40" height="100" as="geometry" />
        </mxCell>
        <mxCell id="HbWgX3vfPOHSz5a9uJlV-43" value="Составляются рекомендации по студентам" style="text;html=1;align=center;verticalAlign=middle;whiteSpace=wrap;rounded=0;fontFamily=Times New Roman;fontSize=14;" vertex="1" parent="1">
          <mxGeometry x="980" y="930" width="170" height="30" as="geometry" />
        </mxCell>
        <mxCell id="HbWgX3vfPOHSz5a9uJlV-47" style="edgeStyle=orthogonalEdgeStyle;rounded=0;orthogonalLoop=1;jettySize=auto;html=1;entryX=0;entryY=0.5;entryDx=0;entryDy=0;" edge="1" parent="1" source="HbWgX3vfPOHSz5a9uJlV-44" target="HbWgX3vfPOHSz5a9uJlV-45">
          <mxGeometry relative="1" as="geometry" />
        </mxCell>
        <mxCell id="HbWgX3vfPOHSz5a9uJlV-44" value="" style="rounded=0;whiteSpace=wrap;html=1;fontFamily=Times New Roman;fontSize=14;fillColor=#ffe6cc;strokeColor=#d79b00;" vertex="1" parent="1">
          <mxGeometry x="875" y="1030" width="40" height="100" as="geometry" />
        </mxCell>
        <mxCell id="HbWgX3vfPOHSz5a9uJlV-45" value="" style="rounded=0;whiteSpace=wrap;html=1;fontFamily=Times New Roman;fontSize=14;fillColor=#ffe6cc;strokeColor=#d79b00;" vertex="1" parent="1">
          <mxGeometry x="1515" y="1030" width="40" height="100" as="geometry" />
        </mxCell>
        <mxCell id="HbWgX3vfPOHSz5a9uJlV-48" value="Формируем протокол заседания комиссии" style="text;html=1;align=center;verticalAlign=middle;whiteSpace=wrap;rounded=0;fontFamily=Times New Roman;fontSize=14;" vertex="1" parent="1">
          <mxGeometry x="1090" y="1040" width="290" height="30" as="geometry" />
        </mxCell>
        <mxCell id="HbWgX3vfPOHSz5a9uJlV-51" style="edgeStyle=orthogonalEdgeStyle;rounded=0;orthogonalLoop=1;jettySize=auto;html=1;entryX=1;entryY=0.5;entryDx=0;entryDy=0;" edge="1" parent="1" source="HbWgX3vfPOHSz5a9uJlV-49" target="HbWgX3vfPOHSz5a9uJlV-50">
          <mxGeometry relative="1" as="geometry" />
        </mxCell>
        <mxCell id="HbWgX3vfPOHSz5a9uJlV-49" value="" style="rounded=0;whiteSpace=wrap;html=1;fontFamily=Times New Roman;fontSize=14;fillColor=#ffe6cc;strokeColor=#d79b00;" vertex="1" parent="1">
          <mxGeometry x="1515" y="1169" width="40" height="100" as="geometry" />
        </mxCell>
        <mxCell id="HbWgX3vfPOHSz5a9uJlV-50" value="" style="rounded=0;whiteSpace=wrap;html=1;fontFamily=Times New Roman;fontSize=14;fillColor=#ffe6cc;strokeColor=#d79b00;" vertex="1" parent="1">
          <mxGeometry x="225" y="1169" width="40" height="100" as="geometry" />
        </mxCell>
        <mxCell id="HbWgX3vfPOHSz5a9uJlV-52" value="Завершение текущей сессии" style="text;html=1;align=center;verticalAlign=middle;whiteSpace=wrap;rounded=0;fontFamily=Times New Roman;fontSize=14;" vertex="1" parent="1">
          <mxGeometry x="750" y="1180" width="290" height="30" as="geometry" />
        </mxCell>
      </root>
    </mxGraphModel>
  </diagram>
</mxfile>
